<svg xmlns:xlink="http://www.w3.org/1999/xlink" xmlns="http://www.w3.org/2000/svg" id="oiwLGbD10" viewBox="0 0 369.5483870967742 56.45125993422285" height="56.45125993422285" width="369.5483870967742" style="width: 369.548px; height: 56.4513px; position: absolute; top: 50%; left: 50%; transform: translate(-50%, -50%) scale(0.613857); z-index: 0; cursor: pointer; overflow: visible;"><defs id="SvgjsDefs1372"></defs><g id="SvgjsG1373" featurekey="symbolFeature-0" transform="matrix(0.7841415789062086,0,0,0.7841415789062086,-10.97985463516023,-10.980214334504344)" fill="#118DF0"><g xmlns="http://www.w3.org/2000/svg" fill="#118DF0"><path fill="#118DF0" d="M30.595,14.008c-0.027,0-0.084,0-0.113,0.028c-0.339,0.057-0.622,0.425-0.622,0.793v5.978   c0,0.057,0,0.085,0,0.113h-4.161c-2.604,0-4.728,2.125-4.728,4.731v4.165c-0.028,0-0.057,0-0.085,0h-6.001   c-0.028,0-0.057,0-0.085,0c-0.396,0.028-0.764,0.425-0.764,0.85c0.028,0.396,0.424,0.765,0.849,0.737h6.001   c0.028,0.028,0.057,0.028,0.085,0v3.966c-0.028,0-0.057,0-0.085,0h-6.001c-0.028,0-0.057,0-0.085,0   c-0.396,0-0.764,0.425-0.764,0.821c0.028,0.425,0.424,0.793,0.849,0.765h6.001c0.028,0,0.057,0,0.085,0v3.966   c-0.028-0.028-0.057-0.028-0.085,0h-6.001c-0.057-0.028-0.113-0.028-0.142,0c-0.424,0.028-0.764,0.453-0.736,0.85   c0.057,0.425,0.453,0.765,0.877,0.736h6.001c0.028,0,0.057,0,0.085,0v3.91c-0.028,0-0.057,0-0.085,0h-6.001   c-0.028,0-0.057,0-0.085,0c-0.396,0.028-0.764,0.425-0.764,0.85c0.028,0.425,0.424,0.793,0.849,0.765h6.001   c0.028,0,0.057,0,0.085,0v3.938c-0.028,0-0.057,0-0.085,0h-6.001c-0.057,0-0.113,0-0.142,0c-0.424,0.057-0.764,0.453-0.736,0.878   c0.057,0.425,0.453,0.765,0.877,0.736h6.001c0.028,0,0.057,0,0.085,0v3.938c-0.028,0-0.057,0-0.085,0h-6.001   c-0.057,0-0.113,0-0.142,0c-0.424,0.028-0.764,0.453-0.736,0.878c0.057,0.426,0.453,0.766,0.877,0.737h6.001   c0.028,0,0.057,0,0.085,0v3.909c-0.028,0-0.057,0-0.085,0h-6.001c-0.028,0-0.057,0-0.085,0c-0.396,0.028-0.764,0.425-0.764,0.85   c0.028,0.397,0.424,0.766,0.849,0.737h6.001c0.028,0,0.057,0,0.085,0v3.966c-0.028,0-0.057,0-0.085,0h-6.001   c-0.057,0-0.113,0-0.142,0c-0.424,0.028-0.764,0.453-0.736,0.879c0.057,0.396,0.453,0.765,0.877,0.708h6.001   c0.028,0,0.057,0,0.085,0v4.165c0,2.635,2.123,4.73,4.728,4.73h4.161c0,0.028,0,0.085,0,0.113v5.979   c0,0.425,0.368,0.821,0.792,0.821c0.426,0,0.821-0.396,0.821-0.821v-5.979c0-0.028,0-0.085,0-0.113h3.935c0,0.028,0,0.085,0,0.113   v5.979c0,0.425,0.369,0.821,0.793,0.821c0.425,0,0.821-0.396,0.793-0.821v-5.979c0-0.028,0-0.085,0-0.113h3.963   c0,0.028,0,0.085,0,0.113v5.979c0,0.425,0.368,0.821,0.793,0.821c0.424,0,0.793-0.396,0.793-0.821v-5.979c0-0.028,0-0.085,0-0.113   h3.934c0,0.028,0,0.085,0,0.113v5.979c-0.027,0.425,0.369,0.821,0.793,0.821c0.425,0,0.793-0.396,0.793-0.821v-5.979   c0-0.028,0-0.085,0-0.113h3.934c0,0.028,0,0.085,0,0.113v5.979c0,0.425,0.396,0.821,0.821,0.821s0.792-0.396,0.792-0.821v-5.979   c0-0.028,0-0.085,0-0.113h3.936c0,0.028,0,0.085,0,0.113v5.979c0,0.425,0.396,0.821,0.792,0.821c0.425,0,0.821-0.396,0.821-0.821   v-5.979c0-0.028,0-0.085,0-0.113h3.906c0,0.028,0,0.085,0,0.113v5.979c0,0.425,0.368,0.821,0.793,0.821s0.821-0.396,0.821-0.821   v-5.979c0-0.028,0-0.085,0-0.113h3.935c0,0.028,0,0.085,0,0.113v5.979c0,0.425,0.368,0.821,0.792,0.821   c0.425,0,0.821-0.396,0.793-0.821v-5.979c0-0.028,0-0.085,0-0.113h4.189c2.604,0,4.699-2.096,4.699-4.73v-4.165   c0.057,0,0.085,0,0.113,0h6.001c0.396,0,0.793-0.368,0.793-0.793c0-0.426-0.396-0.794-0.793-0.794H79.2c-0.028,0-0.057,0-0.113,0   v-3.966c0.057,0,0.085,0,0.113,0h6.001c0.396,0.028,0.793-0.368,0.793-0.794c0-0.425-0.396-0.793-0.793-0.793H79.2   c-0.028,0-0.057,0-0.085,0c0,0,0,0-0.028,0V59.14c0.057,0,0.085,0,0.113,0h6.001c0.396,0,0.793-0.397,0.793-0.822   s-0.396-0.793-0.793-0.793H79.2c-0.028,0-0.057,0-0.113,0v-3.938c0.057,0,0.085,0,0.113,0h6.001c0.396,0,0.793-0.396,0.793-0.821   c0-0.396-0.396-0.793-0.793-0.793H79.2c-0.028,0-0.057,0-0.113,0v-3.938c0.057,0,0.085,0,0.113,0h6.001   c0.396,0,0.793-0.369,0.793-0.793s-0.396-0.822-0.793-0.822H79.2c-0.028,0-0.057,0-0.085,0c0,0,0,0-0.028,0v-3.91   c0.057,0,0.085,0,0.113,0h6.001c0.396,0,0.793-0.368,0.793-0.793c0-0.425-0.396-0.822-0.793-0.793H79.2   c-0.028-0.028-0.057-0.028-0.113,0v-3.966c0.057,0,0.085,0,0.113,0h6.001c0.396,0,0.793-0.368,0.793-0.793   c0-0.425-0.396-0.793-0.793-0.793H79.2c-0.028,0-0.057,0-0.085,0c0,0,0,0-0.028,0v-3.966c0.057,0.028,0.085,0.028,0.113,0h6.001   c0.396,0.028,0.793-0.369,0.793-0.793s-0.396-0.793-0.793-0.793H79.2c-0.028,0-0.057,0-0.085,0c0,0,0,0-0.028,0v-4.165   c0-2.606-2.095-4.731-4.699-4.731h-4.189c0-0.028,0-0.057,0-0.113V14.83c0.028-0.482-0.481-0.907-0.962-0.793   c-0.368,0.057-0.623,0.425-0.623,0.793v5.978c0,0.057,0,0.085,0,0.113h-3.935c0-0.028,0-0.057,0-0.113V14.83   c0-0.482-0.51-0.907-0.991-0.793c-0.34,0.057-0.623,0.425-0.623,0.793v5.978c0,0.057,0,0.085,0,0.113h-3.906   c0-0.028,0-0.057,0-0.113V14.83c0-0.482-0.51-0.907-0.991-0.793c-0.339,0.057-0.622,0.425-0.622,0.793v5.978   c0,0.057,0,0.085,0,0.113h-3.936c0-0.028,0-0.057,0-0.113V14.83c0-0.482-0.509-0.907-0.99-0.793   c-0.34,0.057-0.623,0.425-0.623,0.793v5.978c0,0.057,0,0.085,0,0.113h-3.934c0-0.028,0-0.057,0-0.113V14.83   c0.028-0.482-0.51-0.907-0.963-0.793c-0.367,0.057-0.65,0.425-0.623,0.793v5.978c0,0.057,0,0.085,0,0.113h-3.934   c0-0.028,0-0.057,0-0.113V14.83c0.027-0.482-0.51-0.907-0.963-0.793c-0.368,0.057-0.651,0.425-0.623,0.793v5.978   c0,0.057,0,0.085,0,0.113h-3.963c0-0.028,0-0.057,0-0.113V14.83c0.028-0.482-0.481-0.907-0.963-0.793   c-0.367,0.057-0.623,0.425-0.623,0.793v5.978c0,0.057,0,0.085,0,0.113h-3.935c0-0.028,0-0.057,0-0.113V14.83   C31.473,14.376,31.048,13.951,30.595,14.008L30.595,14.008z M25.699,22.507h48.689c1.755,0,3.114,1.388,3.114,3.145v48.702   c0,1.756-1.359,3.145-3.114,3.145H25.699c-1.756,0-3.114-1.389-3.114-3.145V25.652C22.584,23.896,23.943,22.507,25.699,22.507   L25.699,22.507z M30.511,29.816c-0.368,0.057-0.651,0.425-0.651,0.793v38.786c0,0.425,0.396,0.793,0.792,0.793h38.753   c0.425,0,0.793-0.368,0.793-0.793V30.61c0-0.425-0.368-0.793-0.793-0.793H30.652c0,0-0.027,0-0.057,0   C30.568,29.816,30.539,29.816,30.511,29.816L30.511,29.816z M31.473,31.403h37.14v37.198h-37.14V31.403L31.473,31.403z"></path></g></g><g id="SvgjsG1374" featurekey="nameFeature-0" transform="matrix(1.6350030520792076,0,0,1.6350030520792076,76.00000019490756,-13.65803795208878)" fill="#000"><path d="M1.16 11.399999999999999 c7.88 0 14.28 6.4 14.28 14.28 s-6.4 14.32 -14.28 14.32 l-1.16 0 l0 -28.6 l1.16 0 z M1.16 38.8 c7.24 0 13.12 -5.88 13.12 -13.12 s-5.88 -13.12 -13.12 -13.12 l0 26.24 z M33.875 40 l-1.12 -4.52 l-10.96 0 l-1.12 4.52 l-1.2 0 l7.08 -28.6 l1.44 0 l7.08 28.6 l-1.2 0 z M22.075 34.28 l10.4 0 l-5.2 -20.88 z M44.51 11.399999999999999 l0 1.16 l-4.08 0 l0 27.44 l-1.16 0 l0 -27.44 l-4.16 0 l0 -1.16 l9.4 0 z M58.945 40 l-1.12 -4.52 l-10.96 0 l-1.12 4.52 l-1.2 0 l7.08 -28.6 l1.44 0 l7.08 28.6 l-1.2 0 z M47.145 34.28 l10.4 0 l-5.2 -20.88 z M75.775 11.399999999999999 l0 28.6 l-1.16 0 l0 -28.6 l1.16 0 z M92.93 11.399999999999999 l1.16 0 l0 28.6 l-1.16 0 l0 -5.16 c-0.2 -9.16 -4.88 -17.2 -11.96 -22.04 l0 27.2 l-1.16 0 l0 -28.6 l1.16 0 c5.72 3.64 10 9.28 11.96 15.96 l0 -15.96 z M104.125 40.56 c-2.36 0 -4.6 -1.12 -6 -3.04 l0.92 -0.68 c1.2 1.6 3.08 2.56 5.08 2.56 c3.4 0 6.2 -2.8 6.2 -6.24 c0 -3.56 -2.72 -6.16 -5.36 -8.72 c-2.56 -2.4 -5.16 -4.92 -5.16 -8.24 c0 -2.96 2.44 -5.4 5.4 -5.4 c1.72 0 3.36 0.84 4.4 2.24 l-0.96 0.68 c-0.8 -1.08 -2.08 -1.76 -3.44 -1.76 c-2.32 0 -4.24 1.92 -4.24 4.24 c0 2.8 2.32 5.04 4.8 7.4 c2.8 2.72 5.72 5.52 5.72 9.56 c0 4.08 -3.32 7.4 -7.36 7.4 z M116.67999999999999 11.399999999999999 l0 28.6 l-1.16 0 l0 -28.6 l1.16 0 z M133.835 20.44 l2.32 0 l0 19.56 l-1.16 0 c-7.88 0 -14.28 -6.44 -14.28 -14.32 s6.4 -14.28 14.28 -14.28 l1.16 0 l0 1.16 l-1.16 0 c-7.24 0 -13.12 5.88 -13.12 13.12 s5.88 13.12 13.12 13.12 l0 -17.16 l-1.16 0 l0 -1.2 z M149.95 11.399999999999999 l1.16 0 l0 28.6 l-1.16 0 l0 -18.32 l-8.6 0 l0 18.32 l-1.16 0 l0 -28.6 l1.16 0 l0 9.04 l8.6 0 l0 -9.04 z M164.54500000000002 11.399999999999999 l0 1.16 l-4.08 0 l0 27.44 l-1.16 0 l0 -27.44 l-4.16 0 l0 -1.16 l9.4 0 z M172.18 40.56 c-2.36 0 -4.6 -1.12 -6 -3.04 l0.92 -0.68 c1.2 1.6 3.08 2.56 5.08 2.56 c3.4 0 6.2 -2.8 6.2 -6.24 c0 -3.56 -2.72 -6.16 -5.36 -8.72 c-2.56 -2.4 -5.16 -4.92 -5.16 -8.24 c0 -2.96 2.44 -5.4 5.4 -5.4 c1.72 0 3.36 0.84 4.4 2.24 l-0.96 0.68 c-0.8 -1.08 -2.08 -1.76 -3.44 -1.76 c-2.32 0 -4.24 1.92 -4.24 4.24 c0 2.8 2.32 5.04 4.8 7.4 c2.8 2.72 5.72 5.52 5.72 9.56 c0 4.08 -3.32 7.4 -7.36 7.4 z" fill="#000"></path></g></svg>